<svg width="342" height="185" viewBox="0 0 342 185" fill="none" xmlns="http://www.w3.org/2000/svg">
<path d="M0 76.4396C0 41.6455 0 24.2484 11.326 15.2404C22.6519 6.23246 39.6026 10.148 73.5041 17.979L307.903 72.1238C324.259 75.9018 332.436 77.7909 337.218 83.8031C342 89.8154 342 98.2086 342 114.995V141C342 161.742 342 172.113 335.556 178.556C329.113 185 318.742 185 298 185H44C23.2582 185 12.8873 185 6.44365 178.556C0 172.113 0 161.742 0 141V76.4396Z" fill="url(#paint0_linear_161_4343)"/>
<defs>
<linearGradient id="paint0_linear_161_4343" x1="0" y1="138" x2="354.142" y2="138" gradientUnits="userSpaceOnUse">
<stop stop-color="#5936B4"/>
<stop offset="1" stop-color="#362A84"/>
</linearGradient>
</defs>
</svg>
